<?xml version="1.0" encoding="UTF-8" standalone="no"?><!DOCTYPE svg PUBLIC "-//W3C//DTD SVG 1.1//EN" "http://www.w3.org/Graphics/SVG/1.1/DTD/svg11.dtd"><svg width="100%" height="100%" viewBox="0 0 1772 374" version="1.1" xmlns="http://www.w3.org/2000/svg" xmlns:xlink="http://www.w3.org/1999/xlink" xml:space="preserve" xmlns:serif="http://www.serif.com/" style="fill-rule:evenodd;clip-rule:evenodd;stroke-linejoin:round;stroke-miterlimit:2;"><g id="Camada-1" serif:id="Camada 1"><path d="M714.289,131.693c-19.131,-0 -39.747,7.925 -52.606,38.669l0.35,-80.522l-44.703,-0l-0,194.097l47.49,-0l0,-106.05c7.525,-4.138 17.478,-5.025 24.691,-5.025c17.25,-0 25.091,9.756 25.091,23.056l-0,88.019l44.853,-0l-0,-110.86c-0,-26.9 -22.897,-41.384 -45.166,-41.384" style="fill-rule:nonzero;"/><path d="M538.583,89.84l-47.138,-0l0,194.097l95.682,-0l30.203,-42.035l-78.747,0l-0,-152.062Z" style="fill-rule:nonzero;"/><path d="M847.681,238.949c-22.188,0 -32.329,-11.378 -32.329,-37.209c0,-23.063 10.141,-37.519 32.329,-37.519c7.696,-0 15.393,0.953 22.787,3.878l0,67.372c-6.809,2.275 -15.681,3.478 -22.787,3.478m22.787,-107.016l0,26.585c-12.6,-17.141 -29.359,-26.585 -47.509,-26.585c-35.816,0 -53.882,28.907 -53.882,69.807c0,45.818 22.504,69.803 53.882,69.803c16.862,-0 35.309,-8.335 47.509,-25.372l0,15.35c-0.225,6.712 -0.662,15.503 -1.316,18.45c-0.99,4.481 -2.834,8.709 -5.531,12.691c-2.694,3.975 -6.381,7.3 -11.059,9.971c-4.681,2.666 -10.71,4.004 -18.085,4.004c-4.915,-0 -9.24,-0.607 -12.975,-1.816c-3.737,-1.206 -6.95,-2.844 -9.643,-4.909c-2.697,-2.066 -4.919,-4.482 -6.666,-7.25c-1.753,-2.772 -3.1,-5.719 -4.044,-8.841l-41.697,-0c0.285,4.837 1.113,9.694 2.482,14.581c1.372,4.881 3.356,9.619 5.959,14.2c2.597,4.581 5.86,8.863 9.785,12.844c3.921,3.978 8.628,7.425 14.112,10.347c5.481,2.919 11.772,5.237 18.863,6.95c7.09,1.709 15.078,2.569 23.968,2.569c12.572,-0 23.778,-1.966 33.61,-5.894c9.834,-3.925 18.106,-9.441 24.818,-16.541c6.716,-7.103 11.844,-15.559 15.391,-25.381c3.275,-9.069 5.016,-18.988 5.266,-29.734l-0,-5.654l0.003,-130.171l-43.241,-0.004Z" style="fill-rule:nonzero;"/><path d="M1137.17,89.842l-59.916,149.056l-1.084,0l-59.912,-149.056l-36.385,0l0,194.097l28.625,0l0,-135.787l0.972,-0l54.538,135.787l25.278,0l54.665,-135.787l0.978,-0l0,135.787l28.622,0l0,-194.097l-36.381,0Z" style="fill-rule:nonzero;"/><path d="M1229.66,92.05c-2.722,-1.472 -5.731,-2.206 -9.028,-2.206c-3.3,-0 -6.266,0.734 -8.897,2.206c-2.631,1.472 -4.725,3.544 -6.284,6.219c-1.563,2.675 -2.341,5.665 -2.341,8.962c0,3.3 0.778,6.266 2.341,8.894c1.559,2.631 3.653,4.706 6.284,6.222c2.631,1.515 5.597,2.272 8.897,2.272c3.297,-0 6.306,-0.757 9.028,-2.272c2.719,-1.516 4.816,-3.591 6.284,-6.222c1.472,-2.628 2.21,-5.594 2.21,-8.894c-0,-3.297 -0.738,-6.287 -2.21,-8.962c-1.468,-2.675 -3.565,-4.747 -6.284,-6.219" style="fill-rule:nonzero;"/><rect x="1206.86" y="145.904" width="27.556" height="138.034"/><path d="M1366.56,149.113c-7.222,-4.634 -15.962,-6.956 -26.216,-6.956c-9.009,0 -17.012,1.875 -24.009,5.619c-7.003,3.747 -12.441,8.984 -16.319,15.719c-0.49,0.85 -0.95,1.722 -1.378,2.606l-0.962,-0l-0,-20.197l-27.553,0l-0,138.034l27.553,0l-0,-74.365c-0,-9.185 1.606,-16.875 4.815,-23.075c3.21,-6.197 7.444,-10.835 12.707,-13.91c5.259,-3.075 11.012,-4.615 17.253,-4.615c9.184,-0 16.253,3.144 21.203,9.431c4.947,6.284 7.422,15.359 7.422,27.219l-0,79.315l27.553,0l-0,-83.596c-0,-12.125 -1.872,-22.538 -5.619,-31.232c-3.744,-8.693 -9.228,-15.359 -16.45,-19.997" style="fill-rule:nonzero;"/><path d="M1445.28,92.051c-2.722,-1.472 -5.731,-2.207 -9.028,-2.207c-3.3,0 -6.266,0.735 -8.897,2.207c-2.631,1.471 -4.725,3.543 -6.284,6.218c-1.563,2.675 -2.341,5.666 -2.341,8.963c0,3.3 0.778,6.265 2.341,8.894c1.559,2.631 3.653,4.706 6.284,6.221c2.631,1.516 5.597,2.272 8.897,2.272c3.297,0 6.306,-0.756 9.028,-2.272c2.719,-1.515 4.816,-3.59 6.284,-6.221c1.472,-2.629 2.21,-5.594 2.21,-8.894c-0,-3.297 -0.738,-6.288 -2.21,-8.963c-1.468,-2.675 -3.565,-4.747 -6.284,-6.218" style="fill-rule:nonzero;"/><rect x="1422.47" y="145.905" width="27.553" height="138.034"/><path d="M1584.05,149.114c-7.222,-4.634 -15.962,-6.956 -26.215,-6.956c-9.01,0 -17.013,1.875 -24.01,5.619c-7.003,3.747 -12.44,8.984 -16.318,15.719c-0.491,0.85 -0.95,1.721 -1.379,2.606l-0.962,-0l-0,-20.197l-27.553,-0l-0,138.034l27.553,0l-0,-74.365c-0,-9.185 1.606,-16.875 4.816,-23.075c3.209,-6.197 7.443,-10.835 12.706,-13.91c5.259,-3.075 11.012,-4.615 17.253,-4.615c9.184,-0 16.253,3.143 21.203,9.431c4.947,6.284 7.422,15.359 7.422,27.219l-0,79.315l27.553,0l0,-83.597c0,-12.125 -1.872,-22.537 -5.619,-31.231c-3.743,-8.694 -9.228,-15.359 -16.45,-19.997" style="fill-rule:nonzero;"/><path d="M1739.89,235.537c-3.525,6.869 -8.425,12.219 -14.712,16.05c-6.288,3.838 -13.444,5.753 -21.469,5.753c-8.115,0 -15.294,-1.915 -21.534,-5.753c-6.244,-3.831 -11.147,-9.184 -14.713,-16.05c-3.568,-6.865 -5.35,-14.622 -5.35,-23.275c0,-8.647 1.782,-16.403 5.35,-23.272c3.566,-6.865 8.469,-12.215 14.713,-16.05c6.24,-3.834 13.419,-5.753 21.534,-5.753c8.025,0 15.181,1.919 21.469,5.753c6.287,3.835 11.187,9.141 14.712,15.916c3.522,6.778 5.285,14.581 5.285,23.406c-0,8.653 -1.763,16.41 -5.285,23.275m4.213,-90.15l-0,19.931l-1.063,0c-3.815,-6.506 -8.6,-11.715 -14.384,-15.584c-8.072,-5.394 -17.812,-8.094 -29.228,-8.094c-12.394,0 -23.563,3.078 -33.503,9.232c-9.947,6.153 -17.747,14.625 -23.406,25.412c-5.666,10.791 -8.497,22.784 -8.497,35.978c-0,13.2 2.831,25.194 8.493,35.981c5.663,10.791 13.463,19.263 23.41,25.416c9.94,6.15 21.109,9.228 33.503,9.228c11.416,0 21.153,-2.697 29.225,-8.094c5.769,-3.853 10.537,-9.062 14.344,-15.581l1.106,0l0,4.381c-0.009,0.004 -0.016,0.004 -0.025,0.004l0,6.878c0,0.543 -0.019,1.072 -0.031,1.606c-0.022,0.606 -0.047,1.209 -0.075,1.809l0.015,0c-1.362,28.15 -19.672,42.363 -44.834,42.363c-19.903,-0 -33.55,-8.816 -40.375,-20.756l-29,-0c7.962,26.156 30.138,44.637 69.375,44.637c44.356,0 72.503,-24.453 72.503,-69.659l0,-125.088l-27.553,0Z" style="fill-rule:nonzero;"/><path d="M313.243,125.368l13.547,-62.275c-12.394,-14.006 -26.847,-26.143 -42.9,-35.921l-22.269,44.915l-5.915,44.338l7.678,67.062l49.859,-58.119Z" style="fill:#fd5200;fill-rule:nonzero;"/><path d="M327.082,209.917l46.36,-32.578c-0.913,-18.15 -4.425,-35.609 -10.154,-52.031l-33.29,3.615l-70.188,81.15l67.272,-0.156Z" style="fill:#fd5200;fill-rule:nonzero;"/><path d="M129.954,238.252l-9.262,63.216l29.231,68.659c11.922,2.388 24.25,3.647 36.872,3.647c7.206,0 14.312,-0.422 21.306,-1.216l1.166,-54.74l-24.61,-34.403l-54.703,-45.163Z" style="fill:#fd5200;fill-rule:nonzero;"/><path d="M289.491,219.407l-57.631,29.447l65.225,28.25l49.125,7.36c8.847,-14.425 15.794,-30.138 20.488,-46.8l-32.425,-18.272l-44.782,0.015Z" style="fill:#fd5200;fill-rule:nonzero;"/><path d="M245.701,264.676l-61.506,-1.203l36.253,50.419l53.959,38.103c14.438,-7.678 27.747,-17.194 39.622,-28.235l-26.434,-40.853l-41.894,-18.231Z" style="fill:#fd5200;fill-rule:nonzero;"/><path d="M58.721,245.532l-13.722,63.087c11.331,13.188 24.475,24.772 39.04,34.379l24.86,-36.679l7.359,-51.843l-6.05,-67.891l-51.487,58.947Z" style="fill:#fd5200;fill-rule:nonzero;"/><path d="M44.881,160.983l-44.881,31.538c0.553,18.619 3.828,36.553 9.441,53.419l32.525,0.412l72.793,-85.531l-69.878,0.162Z" style="fill:#fd5200;fill-rule:nonzero;"/><path d="M241.009,132.738l10.263,-63.307l-28.044,-65.872c-11.785,-2.328 -23.963,-3.559 -36.431,-3.559c-7.788,0 -15.463,0.484 -23,1.409l-1.1,51.672l24.609,34.403l53.703,45.254Z" style="fill:#fd5200;fill-rule:nonzero;"/><path d="M82.473,151.493l59.743,-26.888l-67.337,-30.809l-45.994,-6.891c-9.263,14.594 -16.55,30.56 -21.503,47.525l30.309,17.078l44.781,-0.015Z" style="fill:#fd5200;fill-rule:nonzero;"/><path d="M128.19,107.164l63.403,3.284l-38.425,-53.44l-51.641,-36.466c-14.862,7.635 -28.569,17.206 -40.787,28.378l25.281,39.072l42.169,19.172Z" style="fill:#fd5200;fill-rule:nonzero;"/></g></svg>